<!DOCTYPE svg PUBLIC "-//W3C//DTD SVG 1.1//EN" "http://www.w3.org/Graphics/SVG/1.1/DTD/svg11.dtd">
<!-- Uploaded to: SVG Repo, www.svgrepo.com, Transformed by: SVG Repo Mixer Tools -->
<svg fill="#000000" height="800px" width="800px" version="1.1" id="Layer_1" xmlns="http://www.w3.org/2000/svg" xmlns:xlink="http://www.w3.org/1999/xlink" viewBox="-4.91 -4.91 500.49 500.49" xml:space="preserve" stroke="#000000" stroke-width="7.360004999999999">
<g id="SVGRepo_bgCarrier" stroke-width="0"/>
<g id="SVGRepo_tracerCarrier" stroke-linecap="round" stroke-linejoin="round"/>
<g id="SVGRepo_iconCarrier"> <g> <g> <path d="M405.909,0H84.757C55.637,0.029,32.035,23.626,32,52.747V405.92c0.035,29.121,23.637,52.717,52.757,52.747h0.576V480 c0,5.891,4.776,10.667,10.667,10.667s10.667-4.776,10.667-10.667v-21.333H384V480c0,5.891,4.776,10.667,10.667,10.667 s10.667-4.776,10.667-10.667v-21.333h0.576c29.121-0.029,52.722-23.626,52.757-52.747V52.747 C458.631,23.626,435.03,0.029,405.909,0z M234.667,437.333H84.757c-17.344-0.018-31.401-14.07-31.424-31.413v-64.587h181.333 V437.333z M234.667,320H53.333V52.747c0.023-17.344,14.08-31.396,31.424-31.413h149.909V320z M437.333,405.92 c-0.023,17.344-14.08,31.396-31.424,31.413h0H256v-96h181.333V405.92z M437.333,320H256V21.333h149.909 c17.344,0.018,31.4,14.07,31.424,31.413V320z"/> </g> </g> <g> <g> <path d="M160,373.333h-32c-5.891,0-10.667,4.776-10.667,10.667s4.776,10.667,10.667,10.667h32c5.891,0,10.667-4.776,10.667-10.667 S165.891,373.333,160,373.333z"/> </g> </g> <g> <g> <path d="M362.667,373.333h-32c-5.891,0-10.667,4.776-10.667,10.667s4.776,10.667,10.667,10.667h32 c5.891,0,10.667-4.776,10.667-10.667S368.558,373.333,362.667,373.333z"/> </g> </g> <g> <g> <path d="M160,128c-5.891,0-10.667,4.776-10.667,10.667v42.667c0,5.891,4.776,10.667,10.667,10.667 c5.891,0,10.667-4.776,10.667-10.667v-42.667C170.667,132.776,165.891,128,160,128z"/> </g> </g> <g> <g> <path d="M330.667,128c-5.891,0-10.667,4.776-10.667,10.667v42.667c0,5.891,4.776,10.667,10.667,10.667s10.667-4.776,10.667-10.667 v-42.667C341.333,132.776,336.558,128,330.667,128z"/> </g> </g> </g>
</svg>