<?xml version="1.0" encoding="iso-8859-1"?>
<!-- Uploaded to: SVG Repo, www.svgrepo.com, Generator: SVG Repo Mixer Tools -->
<!DOCTYPE svg PUBLIC "-//W3C//DTD SVG 1.1//EN" "http://www.w3.org/Graphics/SVG/1.1/DTD/svg11.dtd">
<svg fill="#000000" height="800px" width="800px" version="1.1" id="Capa_1" xmlns="http://www.w3.org/2000/svg" xmlns:xlink="http://www.w3.org/1999/xlink" 
	 viewBox="0 0 371.542 371.542" xml:space="preserve">
<path d="M120.846,66.902V18H95.795v89.995c0,18.606-11.088,35.613-27.656,43.451v143.786h49.506c4.971,0,9,4.029,9,9s-4.029,9-9,9
	H59.139c-4.971,0-9-4.029-9-9V145.307c0-3.955,2.582-7.447,6.363-8.605c12.537-3.841,21.293-15.646,21.293-28.707V9
	c0-4.971,4.029-9,9-9h43.051c4.971,0,9,4.029,9,9v57.902c0,10.312,8.39,18.702,18.702,18.702c10.312,0,18.701-8.39,18.701-18.702V9
	c0-4.971,4.029-9,9-9h43.055c4.971,0,9,4.029,9,9v98.995c0,13.06,8.756,24.864,21.292,28.707c3.781,1.159,6.363,4.65,6.363,8.605
	v10.822c0,4.971-4.029,9-9,9s-9-4.029-9-9v-4.683c-16.567-7.839-27.655-24.846-27.655-43.451V18H194.25v48.902
	c0,20.238-16.464,36.702-36.701,36.702S120.846,87.139,120.846,66.902z M319.111,368.542c-1.707,1.909-4.146,3-6.708,3h-54.922
	c-3.663,0-6.961-2.221-8.339-5.615l-20.192-49.745l-20.192,49.745c-1.378,3.395-4.676,5.615-8.339,5.615h-54.927
	c-2.562,0-5.001-1.091-6.708-3c-1.708-1.909-2.521-4.455-2.236-7l19.223-171.937c0.51-4.555,4.36-8,8.944-8h128.469
	c4.584,0,8.436,3.445,8.944,8l19.22,171.937C321.631,364.087,320.819,366.633,319.111,368.542z M302.34,353.542l-17.207-153.937
	H172.764l-17.21,153.937h38.805l26.252-64.674c1.378-3.395,4.676-5.615,8.339-5.615s6.961,2.221,8.339,5.615l26.252,64.674H302.34z"
	/>
</svg>