<!DOCTYPE svg PUBLIC "-//W3C//DTD SVG 1.1//EN" "http://www.w3.org/Graphics/SVG/1.1/DTD/svg11.dtd">
<!-- Uploaded to: SVG Repo, www.svgrepo.com, Transformed by: SVG Repo Mixer Tools -->
<svg fill="#000000" height="70px" width="70px" version="1.1" id="Layer_1" xmlns="http://www.w3.org/2000/svg" xmlns:xlink="http://www.w3.org/1999/xlink" viewBox="0 0 512 512" xml:space="preserve">
<g id="SVGRepo_bgCarrier" stroke-width="0"/>
<g id="SVGRepo_tracerCarrier" stroke-linecap="round" stroke-linejoin="round" stroke="#CCCCCC" stroke-width="58.367999999999995"/>
<g id="SVGRepo_iconCarrier"> <g> <g> <g> <path d="M469.953,349.398H273.571c-4.848,0-8.776,3.93-8.776,8.776v83.266c0,4.847,3.928,8.776,8.776,8.776h196.382 c4.847,0,8.776-3.93,8.776-8.776v-83.266C478.729,353.327,474.8,349.398,469.953,349.398z M461.176,432.665H282.347v-65.713 h178.829V432.665z"/> <circle cx="371.762" cy="384.807" r="10.449"/> <path d="M469.953,223.149H327.96c-4.847,0-8.776,3.93-8.776,8.776v101.068c0,4.847,3.93,8.776,8.776,8.776h141.992 c4.847,0,8.776-3.93,8.776-8.776V231.926C478.729,227.079,474.8,223.149,469.953,223.149z M461.176,324.217H336.737v-41.419 c0.983,4.75,5.189,8.319,10.23,8.319c5.771,0,10.45-4.677,10.45-10.449c0-5.773-4.678-10.45-10.45-10.45 c-5.042,0-9.247,3.57-10.23,8.32v-37.837h124.439V324.217z"/> <path d="M512,48.237V21.962c0-4.847-3.928-8.776-8.776-8.776H8.776C3.928,13.185,0,17.115,0,21.962v26.276 c0,4.742,3.762,8.595,8.463,8.76v398.005C3.762,455.168,0,459.021,0,463.763v26.276c0,4.847,3.928,8.776,8.776,8.776h494.447 c4.848,0,8.776-3.93,8.776-8.776v-26.276c0-4.742-3.762-8.595-8.463-8.76V56.997C508.238,56.831,512,52.977,512,48.237z M494.447,481.262H17.553v-8.723h476.894V481.262z M26.016,454.987L26.016,454.987V57.013h459.967v397.973H26.016z M494.447,39.461H17.553v-8.723h476.894V39.461z"/> <path d="M469.953,67.873H327.96c-4.847,0-8.776,3.93-8.776,8.776v134.532c0,4.847,3.93,8.776,8.776,8.776h141.992 c4.847,0,8.776-3.93,8.776-8.776V76.649C478.729,71.802,474.8,67.873,469.953,67.873z M461.176,202.405H336.737v-58.15 c0.983,4.751,5.189,8.32,10.23,8.32c5.771,0,10.45-4.678,10.45-10.451c0-5.77-4.678-10.449-10.45-10.449 c-5.042,0-9.247,3.57-10.23,8.319V85.426h124.439V202.405z"/> <path d="M42.046,341.77h250.625c4.848,0,8.776-3.93,8.776-8.776V72.055c0-4.847-3.928-8.776-8.776-8.776H42.046 c-4.848,0-8.776,3.93-8.776,8.776v260.939C33.27,337.841,37.198,341.77,42.046,341.77z M283.894,152.718 c-0.181-0.17-0.348-0.352-0.547-0.508l-45.054-35.285c-1.544-1.21-3.449-1.868-5.411-1.868h-37.087v-1.609h88.098V152.718z M180.543,132.61h49.313l37.276,29.194l-6.657,14.938l-24.25-9.984c-2.707-1.114-5.792-0.806-8.225,0.824 c-2.432,1.629-3.892,4.364-3.892,7.292v78.809h-43.565V132.61z M180.541,80.832h103.353v15.064H180.541V80.832z M180.541,271.236 h52.341c4.848,0,8.776-3.93,8.776-8.776v-74.48l20.018,8.242c4.391,1.807,9.425-0.205,11.358-4.543l10.858-24.365v156.904 H180.541V271.236z M50.823,80.832h112.166v243.386H50.823V80.832z"/> <circle cx="149.885" cy="200.733" r="10.449"/> <circle cx="140.238" cy="384.807" r="10.449"/> <path d="M238.428,349.398H42.046c-4.848,0-8.776,3.93-8.776,8.776v83.266c0,4.847,3.928,8.776,8.776,8.776h196.382 c4.848,0,8.776-3.93,8.776-8.776v-83.266C247.204,353.327,243.276,349.398,238.428,349.398z M229.651,432.665H50.823v-65.713 h178.829V432.665z"/> </g> </g> </g> </g>
</svg>